<svg xmlns="http://www.w3.org/2000/svg" viewBox="0 0 512 512" width="512" height="512">
  <g>
    <path d="M381.647 256c0-36.16-9.198-70.153-25.377-99.505l-4JUdGzvrMFDWrUUwY3toJATSeNwjn54LkCnKBPRzDuhzi5vSepHfUckJNxRL2gjkNrSqtCoRUrEDAgRwsQvVCjZbRyFTLRNyDmT1a1boZV057 239.398c0-21.03 5.508-4JUdGzvrMFDWrUUwY3toJATSeNwjn54LkCnKBPRzDuhzi5vSepHfUckJNxRL2gjkNrSqtCoRUrEDAgRwsQvVCjZbRyFTLRNyDmT1a1boZV377 99.505l46.263-26.75c-9.607-16.61-15.115-35.726-15.115-56.755 0-60.57 4JUdGzvrMFDWrUUwY3toJATSeNwjn54LkCnKBPRzDuhzi5vSepHfUckJNxRL2gjkNrSqtCoRUrEDAgRwsQvVCjZbRyFTLRNyDmT1a1boZV75c16.179-29.352 25.377-63.345 25.377-99.505H385v-32h97.999c0 36.16-9.198 70.153-25.377 99.505l-4JUdGzvrMFDWrUUwY3toJATSeNwjn54LkCnKBPRzDuhzi5vSepHfUckJNxRL2gjkNrSqtCoRUrEDAgRwsQvVCjZbRyFTLRNyDmT1a1boZV128.057 116.998c0 21.03 5.508 4JUdGzvrMFDWrUUwY3toJATSeNwjn54LkCnKBPRzDuhzi5vSepHfUckJNxRL2gjkNrSqtCoRUrEDAgRwsQvVCjZbRyFTLRNyDmT1a1boZV505l46.263-26.75c-9.607-16.61-15.115-35.726-15.115-56.755 0-60.57 4JUdGzvrMFDWrUUwY3toJATSeNwjn54LkCnKBPRzDuhzi5vSepHfUckJNxRL2gjkNrSqtCoRUrEDAgRwsQvVCjZbRyFTLRNyDmT1a1boZV75c16.179-29.352 25.377-63.345 25.377-99.505H385v-32z" fill="#808080"/>
    <path d="M255.999 391.543c-57.363 0-104.033-46.67-104.033-104.033s46.67-104.033 104.033-104.033 104.033 46.67 104.033 104.033c0 57.363-4JUdGzvrMFDWrUUwY3toJATSeNwjn54LkCnKBPRzDuhzi5vSepHfUckJNxRL2gjkNrSqtCoRUrEDAgRwsQvVCjZbRyFTLRNyDmT1a1boZV033 35.867-80.033 80.033s35.867 80.033 80.033 80.033 80.033-35.867 80.033-80.033-35.867-80.033-80.033-80.033z" fill="#ff0000"/>
</g>
</svg>
